<svg width="68" height="73" viewBox="0 0 68 73" fill="none" xmlns="http://www.w3.org/2000/svg">
<path d="M11.8446 55.2595C10.4184 46.3016 8.78856 34.7477 7.36242 25.7897C7.3511 25.7044 7.43033 25.6435 7.49824 25.6922L21.6239 35.613C21.6239 35.613 21.7258 35.6252 21.7484 35.5764C25.8231 27.4594 29.9091 19.3424 33.9839 11.2254C34.0178 11.1523 34.1084 11.1645 34.1423 11.2254C38.1152 19.5131 42.088 27.8129 46.0608 36.1005C46.0835 36.1492 46.1401 36.1736 46.1853 36.1371C50.9505 32.6026 55.727 29.0682 60.4921 25.546C60.56 25.4972 60.6392 25.546 60.6279 25.6435C59.2697 34.6745 57.1305 46.8866 55.7722 55.9177" stroke="white" stroke-width="2" stroke-miterlimit="10" stroke-linecap="round"/>
<path d="M5.53979 24.9852C8.08399 24.9852 10.1465 22.7644 10.1465 20.0248C10.1465 17.2853 8.08399 15.0645 5.53979 15.0645C2.99559 15.0645 0.933105 17.2853 0.933105 20.0248C0.933105 22.7644 2.99559 24.9852 5.53979 24.9852Z" stroke="white" stroke-width="2" stroke-miterlimit="10"/>
<path d="M34.1081 10.5064C36.546 10.5064 38.5224 8.37832 38.5224 5.7532C38.5224 3.12808 36.546 1 34.1081 1C31.6702 1 29.6938 3.12808 29.6938 5.7532C29.6938 8.37832 31.6702 10.5064 34.1081 10.5064Z" stroke="white" stroke-width="2" stroke-miterlimit="10"/>
<path d="M62.5857 24.9975C65.0236 24.9975 66.9999 22.8694 66.9999 20.2443C66.9999 17.6192 65.0236 15.4911 62.5857 15.4911C60.1477 15.4911 58.1714 17.6192 58.1714 20.2443C58.1714 22.8694 60.1477 24.9975 62.5857 24.9975Z" stroke="white" stroke-width="2" stroke-miterlimit="10"/>
<path d="M20.0164 50.7623C19.224 49.4216 18.4204 48.081 17.6281 46.7403C17.6168 46.7159 17.6168 46.6794 17.6281 46.655C18.4204 45.2534 19.224 43.8518 20.0164 42.4503C20.0503 42.4015 20.1182 42.4015 20.1522 42.4503C20.9784 43.73 21.8047 45.0219 22.6196 46.3016C22.6423 46.3259 22.6423 46.3625 22.6196 46.3991C21.7934 47.8616 20.9671 49.3119 20.1409 50.7745C20.1069 50.8232 20.039 50.8232 20.005 50.7745L20.0164 50.7623Z" stroke="white" stroke-width="2" stroke-miterlimit="10"/>
<path d="M48.0638 50.7501C47.2715 49.4216 46.4792 48.0932 45.6869 46.7525C45.6643 46.716 45.6643 46.6794 45.6869 46.655C46.4792 45.2534 47.2715 43.864 48.0638 42.4625C48.0978 42.4015 48.177 42.4015 48.211 42.4625C49.0259 43.7422 49.8522 45.0219 50.6671 46.3016C50.6897 46.3381 50.6897 46.3747 50.6671 46.4113C49.8408 47.8616 49.0259 49.3119 48.1996 50.7623C48.1657 50.8232 48.0865 50.8232 48.0525 50.7623L48.0638 50.7501Z" stroke="white" stroke-width="2" stroke-miterlimit="10"/>
<path d="M33.8474 51.7129C32.6024 49.6167 31.3573 47.5204 30.101 45.4119C30.0783 45.3753 30.0783 45.3388 30.101 45.3144C31.346 43.1206 32.6024 40.9147 33.8474 38.7209C33.8814 38.6599 33.9606 38.6599 33.9946 38.7209C35.2849 40.7318 36.5752 42.755 37.8655 44.766C37.8882 44.8025 37.8882 44.8391 37.8655 44.8757C36.5752 47.1548 35.2736 49.446 33.9833 51.7251C33.9493 51.7861 33.8701 51.7861 33.8361 51.7251L33.8474 51.7129Z" stroke="white" stroke-width="2" stroke-miterlimit="10"/>
<path d="M15.0024 71.7617H53.2028" stroke="white" stroke-width="2" stroke-miterlimit="10" stroke-linecap="round"/>
<path d="M16.4171 62.1943C16.4171 62.4137 16.3945 62.6209 16.3379 62.8037C16.2813 62.9987 16.2021 63.1572 16.0776 63.3034C15.9531 63.4497 15.7946 63.5594 15.5795 63.6447C15.3758 63.73 15.1042 63.7666 14.7872 63.7666H14.6175C14.3911 63.7666 14.1874 63.7666 13.9723 63.7666C13.7572 63.7666 13.5535 63.7422 13.3611 63.7056V64.8878H12.2632V60.4881C12.6141 60.4393 12.9763 60.4149 13.3611 60.3906C13.7459 60.3662 14.1194 60.354 14.493 60.354H14.6627C15.0023 60.354 15.2853 60.3906 15.5116 60.4759C15.738 60.5612 15.9191 60.6709 16.0436 60.8171C16.1794 60.9634 16.27 61.1218 16.3266 61.3168C16.3832 61.5118 16.4058 61.7068 16.4058 61.9262V62.1943H16.4171ZM14.459 62.7184C14.6741 62.7184 14.8438 62.7062 14.957 62.6697C15.0702 62.6331 15.1608 62.5965 15.2173 62.5356C15.2739 62.4747 15.3079 62.4015 15.3079 62.3284C15.3079 62.2553 15.3192 62.1578 15.3192 62.0603C15.3192 61.9628 15.3192 61.8775 15.3079 61.7922C15.3079 61.7068 15.2739 61.6459 15.2173 61.585C15.1608 61.524 15.0815 61.4875 14.9797 61.4509C14.8665 61.4143 14.708 61.4021 14.5043 61.4021C14.3798 61.4021 14.21 61.4021 13.9949 61.4143C13.7799 61.4143 13.5761 61.4387 13.3724 61.4631V62.6575C13.5648 62.6819 13.7459 62.694 13.9157 62.7062C14.0855 62.7062 14.2666 62.7062 14.459 62.7062V62.7184Z" fill="white"/>
<path d="M17.9902 62.5112C17.9902 62.2187 18.0242 61.9384 18.0921 61.6703C18.16 61.4021 18.2845 61.1828 18.4543 60.9878C18.6241 60.7928 18.8618 60.6343 19.1561 60.5246C19.4503 60.4149 19.8125 60.354 20.2653 60.354H20.4803C20.9218 60.354 21.2953 60.4149 21.5896 60.5246C21.8838 60.6343 22.1215 60.7928 22.2913 60.9878C22.4611 61.1828 22.5856 61.4143 22.6535 61.6703C22.7214 61.9384 22.7554 62.2187 22.7554 62.5112V62.8525C22.7554 63.145 22.7214 63.4253 22.6535 63.6934C22.5856 63.9616 22.4611 64.1809 22.2913 64.3759C22.1215 64.5709 21.8838 64.7294 21.5896 64.8391C21.2953 64.9488 20.9331 65.0097 20.4803 65.0097H20.2653C19.8239 65.0097 19.4503 64.9488 19.1561 64.8391C18.8618 64.7294 18.6241 64.5709 18.4543 64.3759C18.2845 64.1809 18.16 63.9494 18.0921 63.6934C18.0242 63.4253 17.9902 63.145 17.9902 62.8525V62.5112ZM19.0881 62.6819C19.0881 62.8525 19.0881 63.0109 19.1108 63.1694C19.1221 63.3278 19.1674 63.4619 19.2466 63.5837C19.3258 63.7056 19.4503 63.7909 19.6314 63.8641C19.8012 63.9372 20.0502 63.9737 20.3671 63.9737C20.6841 63.9737 20.9331 63.9372 21.1029 63.8641C21.2726 63.7909 21.3971 63.6934 21.4764 63.5837C21.5556 63.4619 21.6009 63.3278 21.6122 63.1694C21.6235 63.0109 21.6348 62.8525 21.6348 62.6819C21.6348 62.5112 21.6348 62.3528 21.6122 62.2065C21.6009 62.0481 21.5556 61.914 21.4764 61.8043C21.3971 61.6825 21.2726 61.5971 21.1029 61.524C20.9331 61.4509 20.6841 61.4143 20.3671 61.4143C20.0502 61.4143 19.8012 61.4509 19.6314 61.524C19.4617 61.5971 19.3372 61.6946 19.2466 61.8043C19.1674 61.9262 19.1221 62.0603 19.1108 62.2065C19.0995 62.365 19.0881 62.5234 19.0881 62.6819Z" fill="white"/>
<path d="M27.6678 60.4881H28.7657V64.8878H27.6678V62.0603L25.5286 64.8878H24.4307V60.4881H25.5286V63.3156L27.6678 60.4881ZM27.5093 59.1353V59.2815C27.5093 59.379 27.498 59.4765 27.4641 59.574C27.4414 59.6715 27.3848 59.7446 27.3282 59.8178C27.2603 59.8909 27.1698 59.9396 27.0566 59.9884C26.9434 60.025 26.7963 60.0493 26.6152 60.0493H26.5699C26.4001 60.0493 26.253 60.025 26.1398 59.9884C26.0266 59.9518 25.936 59.8909 25.8681 59.8178C25.8002 59.7446 25.7549 59.6715 25.7323 59.574C25.7097 59.4765 25.687 59.3912 25.687 59.2815V59.1353H26.2303V59.2815C26.2303 59.2815 26.253 59.3912 26.2982 59.4399C26.3435 59.4887 26.4341 59.5131 26.5699 59.5131H26.6152C26.751 59.5131 26.8415 59.4887 26.8868 59.4399C26.9321 59.3912 26.9547 59.3424 26.9547 59.2815V59.1353H27.5093Z" fill="white"/>
<path d="M30.3955 64.8878V64.6197L31.1539 63.3278C31.018 63.2668 30.9162 63.1937 30.8256 63.1084C30.7351 63.0231 30.6672 62.9256 30.6106 62.8159C30.554 62.7062 30.52 62.5843 30.4974 62.4625C30.4747 62.3406 30.4634 62.2065 30.4634 62.0603V61.7921C30.4634 61.5971 30.4861 61.4143 30.5426 61.2315C30.5992 61.0487 30.6898 60.9024 30.8256 60.7684C30.9614 60.6343 31.1425 60.5368 31.3576 60.4515C31.584 60.3784 31.8669 60.3418 32.2065 60.3418H32.3763C32.7498 60.3418 33.1233 60.3418 33.5081 60.3784C33.893 60.4149 34.2552 60.4393 34.606 60.4759V64.8756H33.5081V63.4253C33.3157 63.4618 33.112 63.4862 32.9082 63.4862C32.7045 63.4862 32.4895 63.4862 32.2744 63.4862L31.4595 64.8634H30.3955V64.8878ZM32.365 61.4021C32.1612 61.4021 32.0141 61.4143 31.9009 61.4387C31.7877 61.4631 31.7085 61.4996 31.6632 61.5362C31.6179 61.5728 31.584 61.6337 31.5726 61.6824C31.5613 61.7312 31.5613 61.7921 31.5613 61.8531C31.5613 61.9628 31.5613 62.0481 31.584 62.1212C31.6066 62.1943 31.6292 62.2553 31.6972 62.304C31.7651 62.3528 31.8556 62.3893 31.9914 62.4137C32.1273 62.4381 32.3197 62.4503 32.5574 62.4503C32.6592 62.4503 32.7951 62.4503 32.9762 62.4503C33.1459 62.4503 33.327 62.4259 33.5195 62.4015V61.4631C33.3157 61.4387 33.112 61.4265 32.8969 61.4143C32.6819 61.4021 32.5121 61.4021 32.365 61.4021Z" fill="white"/>
<path d="M36.3606 63.9128C36.519 63.9128 36.6322 63.8762 36.6888 63.7909C36.7454 63.7056 36.7793 63.5837 36.7793 63.4253L36.9038 60.488H40.6277V64.8878H39.5298V61.5362H37.9338L37.8546 63.5471C37.8433 63.7787 37.8093 63.9859 37.7641 64.1565C37.7188 64.3272 37.6396 64.4734 37.549 64.5953C37.4585 64.7172 37.3226 64.8025 37.1529 64.8634C36.9944 64.9244 36.7907 64.9609 36.553 64.9609C36.4624 64.9609 36.3606 64.9609 36.27 64.9487C36.1795 64.9487 36.0889 64.9244 36.021 64.9V63.9006C36.021 63.9006 36.1229 63.9128 36.1908 63.9128C36.2587 63.9128 36.3153 63.9128 36.3492 63.9128H36.3606Z" fill="white"/>
<path d="M48.2112 59.9518V60.4149H48.3244C48.7545 60.4149 49.1167 60.4637 49.3997 60.549C49.6826 60.6343 49.909 60.7562 50.0788 60.9024C50.2485 61.0487 50.3617 61.2315 50.4296 61.4265C50.4976 61.6337 50.5315 61.8409 50.5315 62.0724V62.4137C50.5315 62.6453 50.4976 62.8646 50.4296 63.0596C50.3617 63.2668 50.2372 63.4375 50.0788 63.5837C49.909 63.73 49.6826 63.8518 49.3997 63.9372C49.1167 64.0225 48.7545 64.0712 48.3244 64.0712H48.2112V64.8756H47.1133V64.0712H47.0001C46.57 64.0712 46.2078 64.0225 45.9248 63.9372C45.6419 63.8518 45.4155 63.73 45.2457 63.5837C45.0759 63.4375 44.9627 63.2546 44.8948 63.0596C44.8269 62.8525 44.793 62.6453 44.793 62.4137V62.0724C44.793 61.8409 44.8269 61.6337 44.8948 61.4265C44.9627 61.2193 45.0873 61.0487 45.2457 60.9024C45.4155 60.7562 45.6419 60.6343 45.9248 60.549C46.2078 60.4637 46.57 60.4149 47.0001 60.4149H47.1133V59.9518H48.2112ZM45.8909 62.2431C45.8909 62.3528 45.8909 62.4503 45.9135 62.5478C45.9248 62.6453 45.9701 62.7306 46.0493 62.7915C46.1286 62.8646 46.2531 62.9256 46.4115 62.9621C46.5813 62.9987 46.8077 63.0231 47.1133 63.0231V61.4631C46.8077 61.4631 46.57 61.4874 46.4115 61.524C46.2531 61.5606 46.1286 61.6215 46.0493 61.6946C45.9701 61.7677 45.9248 61.8531 45.9135 61.9506C45.9022 62.0481 45.8909 62.1456 45.8909 62.2431ZM49.4223 62.2431C49.4223 62.1456 49.4223 62.0481 49.3997 61.9506C49.3883 61.8531 49.3431 61.7677 49.2638 61.6946C49.1846 61.6215 49.0601 61.5606 48.9016 61.524C48.7319 61.4874 48.5055 61.4631 48.1999 61.4631V63.0231C48.5055 63.0231 48.7432 62.9987 48.9016 62.9621C49.0601 62.9256 49.1846 62.8646 49.2638 62.7915C49.3431 62.7184 49.3883 62.6331 49.3997 62.5478C49.3997 62.4503 49.4223 62.3528 49.4223 62.2431Z" fill="white"/>
<path d="M53.3161 60.488V62.1943H54.0178L55.3534 60.488H56.4287V60.7562L54.9233 62.694L56.4287 64.6318V64.9H55.3534L54.0744 63.2546H53.3274V64.9H52.2295V60.5002H53.3274L53.3161 60.488Z" fill="white"/>
</svg>
