<svg width="35" height="35" viewBox="0 0 35 35" fill="none" xmlns="http://www.w3.org/2000/svg">
<path d="M35 33.1477L24.7868 22.9363C26.7999 20.5102 28.0111 17.3977 28.0111 14.007C28.0111 6.28341 21.729 0 14.0055 0C6.28148 0 0 6.28333 0 14.007C0 21.731 6.28182 28.0141 14.0055 28.0141C17.3965 28.0141 20.5088 26.8017 22.9332 24.7886L33.1464 35L35 33.1477ZM2.61887 14.007C2.61887 7.72955 7.72605 2.621 14.005 2.621C20.2842 2.621 25.3904 7.72813 25.3904 14.007C25.3904 20.2861 20.2845 25.3922 14.005 25.3922C7.72589 25.3922 2.61887 20.2851 2.61887 14.007Z" fill="white"/>
</svg>
