<svg width="50" height="36" viewBox="0 0 50 36" fill="none" xmlns="http://www.w3.org/2000/svg">
<path d="M48.8966 5.48343C48.313 3.32663 46.6282 1.64183 44.4714 1.05821C40.5913 0 24.9747 0 24.9747 0C24.9747 0 9.35815 0.0320669 5.47806 1.09027C3.32126 1.6739 1.63646 3.3587 1.05284 5.5155C-0.120809 12.4099 -0.576159 22.915 1.0849 29.5336C1.66853 31.6904 3.35333 33.3752 5.51013 33.9588C9.39022 35.017 25.0068 35.017 25.0068 35.017C25.0068 35.017 40.6233 35.017 44.5034 33.9588C46.6602 33.3752 48.345 31.6904 48.9286 29.5336C50.1664 22.6296 50.548 12.1309 48.8966 5.48343Z" fill="white"/>
<path d="M20.0043 25.0121L32.9594 17.5085L20.0043 10.0049V25.0121Z" fill="#010B4C"/>
</svg>
