<svg width="20" height="23" viewBox="0 0 20 23" fill="none" xmlns="http://www.w3.org/2000/svg">
<path d="M14.051 7.36015C14.051 5.33097 12.2339 3.68014 10.0004 3.68014C7.76683 3.68014 5.94972 5.33097 5.94972 7.36015C5.94972 9.38932 7.76683 11.0402 10.0004 11.0402C12.2339 11.0402 14.051 9.38932 14.051 7.36015ZM6.9626 7.36015C6.9626 5.83828 8.32531 4.60027 10.0007 4.60027C11.6759 4.60027 13.0389 5.83828 13.0389 7.36015C13.0386 8.88201 11.6759 10.12 10.0007 10.12C8.32531 10.12 6.9626 8.88201 6.9626 7.36015Z" fill="#010B4C"/>
<path d="M10.0001 23C14.848 23 20 21.7505 20 19.4351C20 17.9672 17.8048 16.7485 14.2156 16.1871C16.1545 13.4267 18.1013 9.99945 18.1013 7.35989C18.1013 3.30161 14.467 0 10.0001 0C5.53321 0 1.89891 3.30174 1.89891 7.35989C1.89891 9.9992 3.84574 13.4265 5.78436 16.1871C2.19524 16.7485 0 17.9672 0 19.4351C0 21.7506 5.15186 23 10.0001 23ZM10.0001 0.919685C13.9088 0.919685 17.0886 3.80854 17.0886 7.35951C17.0886 11.5277 11.5362 18.1992 10.0001 19.9656C8.46342 18.1994 2.91165 11.5297 2.91165 7.35951C2.91165 3.80848 6.09147 0.919685 10.0001 0.919685ZM6.39074 17.031C8.00818 19.23 9.47398 20.8443 9.61056 20.9934C9.70686 21.0985 9.8494 21.1594 10.0001 21.1594C10.1506 21.1594 10.2934 21.0985 10.3894 20.9934C10.526 20.8442 11.9918 19.2299 13.6093 17.031C17.1382 17.5145 18.9876 18.5921 18.9876 19.4345C18.9876 20.6856 15.2967 22.0795 10.0005 22.0795C4.70419 22.0795 1.0133 20.6856 1.0133 19.4345C1.0133 18.5921 2.86178 17.5144 6.39074 17.031Z" fill="#010B4C"/>
</svg>
