<svg width="20" height="21" viewBox="0 0 20 21" fill="none" xmlns="http://www.w3.org/2000/svg">
<path d="M16.7804 1.39443H16.6216V0.472752C16.6216 0.211819 16.4055 0 16.1394 0C15.8732 0 15.6572 0.211824 15.6572 0.472752V1.39443H14.1655V0.472752C14.1655 0.211819 13.9494 0 13.6833 0C13.4171 0 13.201 0.211824 13.201 0.472752V1.39443H11.7094V0.472752C11.7094 0.211819 11.4933 0 11.2271 0C10.961 0 10.7449 0.211824 10.7449 0.472752V1.39443H9.25325V0.472752C9.25325 0.211819 9.03718 0 8.77104 0C8.50489 0 8.28883 0.211824 8.28883 0.472752V1.39443H6.79714V0.472752C6.79714 0.211819 6.58108 0 6.31493 0C6.04878 0 5.83272 0.211824 5.83272 0.472752V1.39443H4.34198V0.472752C4.34198 0.211819 4.12592 0 3.85978 0C3.59363 0 3.37757 0.211824 3.37757 0.472752V1.39443H3.2187C1.44404 1.39443 0 2.81015 0 4.55002V18.6758C0 18.9368 0.21606 19.1486 0.482207 19.1486H4.86418C5.13033 19.1486 5.34638 18.9368 5.34638 18.6758C5.34638 18.4149 5.13032 18.2031 4.86418 18.2031H0.964414V5.86686H19.0345V18.2031H15.1347C14.8686 18.2031 14.6525 18.4149 14.6525 18.6758C14.6525 18.9368 14.8686 19.1486 15.1347 19.1486H19.5169C19.7831 19.1486 19.9991 18.9368 19.9991 18.6758V4.55002C19.9989 2.81015 18.5549 1.39443 16.7803 1.39443H16.7804ZM0.964299 4.92145V4.55002C0.964299 3.33131 1.97565 2.33979 3.21873 2.33979H3.3776V3.26147C3.3776 3.5224 3.59366 3.73422 3.85981 3.73422C4.12595 3.73422 4.34201 3.52239 4.34201 3.26147V2.33979H5.83371V3.26147C5.83371 3.5224 6.04977 3.73422 6.31591 3.73422C6.58206 3.73422 6.79812 3.52239 6.79812 3.26147V2.33979H8.28982V3.26147C8.28982 3.5224 8.50588 3.73422 8.77202 3.73422C9.03817 3.73422 9.25423 3.52239 9.25423 3.26147V2.33979H10.7459V3.26147C10.7459 3.5224 10.962 3.73422 11.2281 3.73422C11.4943 3.73422 11.7103 3.52239 11.7103 3.26147V2.33979H13.202V3.26147C13.202 3.5224 13.4181 3.73422 13.6842 3.73422C13.9504 3.73422 14.1664 3.52239 14.1664 3.26147V2.33979H15.6581V3.26147C15.6581 3.5224 15.8742 3.73422 16.1403 3.73422C16.4065 3.73422 16.6226 3.52239 16.6226 3.26147V2.33979H16.7814C18.0245 2.33979 19.036 3.33131 19.036 4.55002L19.0349 4.92145H0.964299Z" fill="#010B4C"/>
<path d="M3.13481 8.28447H4.86459C5.13074 8.28447 5.3468 8.07265 5.3468 7.81172C5.3468 7.55079 5.13074 7.33897 4.86459 7.33897H3.13481C2.86865 7.33897 2.6526 7.55079 2.6526 7.81172C2.6526 8.07283 2.86866 8.28447 3.13481 8.28447Z" fill="#010B4C"/>
<path d="M7.13486 8.28447H8.86464C9.13079 8.28447 9.34685 8.07265 9.34685 7.81172C9.34685 7.55079 9.13079 7.33897 8.86464 7.33897H7.13486C6.86871 7.33897 6.65265 7.55079 6.65265 7.81172C6.65265 8.07283 6.86871 8.28447 7.13486 8.28447Z" fill="#010B4C"/>
<path d="M11.1349 8.28447H12.8647C13.1308 8.28447 13.3469 8.07265 13.3469 7.81172C13.3469 7.55079 13.1308 7.33897 12.8647 7.33897H11.1349C10.8688 7.33897 10.6527 7.55079 10.6527 7.81172C10.6529 8.07283 10.8686 8.28447 11.1349 8.28447Z" fill="#010B4C"/>
<path d="M15.135 8.28447H16.8647C17.1309 8.28447 17.347 8.07265 17.347 7.81172C17.347 7.55079 17.1309 7.33897 16.8647 7.33897H15.135C14.8688 7.33897 14.6528 7.55079 14.6528 7.81172C14.6529 8.07283 14.8686 8.28447 15.135 8.28447Z" fill="#010B4C"/>
<path d="M3.13481 10.8574H4.86459C5.13074 10.8574 5.3468 10.6456 5.3468 10.3847C5.3468 10.1238 5.13074 9.91194 4.86459 9.91194H3.13481C2.86865 9.91194 2.6526 10.1238 2.6526 10.3847C2.6526 10.6458 2.86866 10.8574 3.13481 10.8574Z" fill="#010B4C"/>
<path d="M7.13486 10.8574H8.86464C9.13079 10.8574 9.34685 10.6456 9.34685 10.3847C9.34685 10.1238 9.13079 9.91194 8.86464 9.91194H7.13486C6.86871 9.91194 6.65265 10.1238 6.65265 10.3847C6.65265 10.6458 6.86871 10.8574 7.13486 10.8574Z" fill="#010B4C"/>
<path d="M11.1349 10.8574H12.8647C13.1308 10.8574 13.3469 10.6456 13.3469 10.3847C13.3469 10.1238 13.1308 9.91194 12.8647 9.91194H11.1349C10.8688 9.91194 10.6527 10.1238 10.6527 10.3847C10.6529 10.6458 10.8686 10.8574 11.1349 10.8574Z" fill="#010B4C"/>
<path d="M15.135 10.8574H16.8647C17.1309 10.8574 17.347 10.6456 17.347 10.3847C17.347 10.1238 17.1309 9.91194 16.8647 9.91194H15.135C14.8688 9.91194 14.6528 10.1238 14.6528 10.3847C14.6529 10.6458 14.8686 10.8574 15.135 10.8574Z" fill="#010B4C"/>
<path d="M3.13481 13.4304H4.86459C5.13074 13.4304 5.3468 13.2186 5.3468 12.9577C5.3468 12.6967 5.13074 12.4849 4.86459 12.4849H3.13481C2.86865 12.4849 2.6526 12.6967 2.6526 12.9577C2.6526 13.2186 2.86866 13.4304 3.13481 13.4304Z" fill="#010B4C"/>
<path d="M15.135 13.4304H16.8647C17.1309 13.4304 17.347 13.2186 17.347 12.9577C17.347 12.6967 17.1309 12.4849 16.8647 12.4849H15.135C14.8688 12.4849 14.6528 12.6967 14.6528 12.9577C14.6529 13.2186 14.8686 13.4304 15.135 13.4304Z" fill="#010B4C"/>
<path d="M13.9488 20.0545C13.6827 20.0545 13.4666 20.2663 13.4666 20.5272C13.4666 20.7882 13.6827 21 13.9488 21H19.5178C19.7839 21 20 20.7882 20 20.5272C19.9998 20.2661 19.7839 20.0545 19.5174 20.0545H13.9488Z" fill="#010B4C"/>
<path d="M6.05111 20.0545H0.482619C0.216467 20.0545 0.00041119 20.2663 0.00041119 20.5272C0.00041119 20.7882 0.216472 21 0.482619 21L6.05111 20.9998C6.31726 20.9998 6.53332 20.788 6.53332 20.5271C6.53332 20.2661 6.31763 20.0545 6.05111 20.0545Z" fill="#010B4C"/>
<path d="M12.9163 13.9258C12.3836 13.4035 11.6752 13.1157 10.9218 13.1157C10.1682 13.1157 9.46001 13.4033 8.92732 13.9258C8.73911 14.1103 8.73911 14.4095 8.92732 14.5941C9.11535 14.7786 9.42092 14.7786 9.60896 14.5941C9.95978 14.2501 10.4261 14.0608 10.9218 14.0608C11.4178 14.0608 11.8838 14.2501 12.2346 14.5941C12.9585 15.3038 12.9585 16.4587 12.2346 17.1684C12.0464 17.3529 12.0464 17.6521 12.2346 17.8367C12.3288 17.929 12.452 17.9752 12.5756 17.9752C12.6989 17.9752 12.8221 17.929 12.9165 17.8367C14.016 16.7585 14.016 15.0041 12.9163 13.9258Z" fill="#010B4C"/>
<path d="M10.3909 18.9765C9.667 19.686 8.48913 19.6862 7.76506 18.9765C7.04117 18.2666 7.04117 17.1119 7.76506 16.4018C7.95327 16.2173 7.95327 15.9181 7.76506 15.7335C7.57703 15.549 7.27146 15.549 7.08342 15.7335C5.98351 16.8119 5.98351 18.5664 7.08342 19.6448C7.63329 20.1839 8.35569 20.4536 9.0779 20.4536C9.8003 20.4536 10.5228 20.1839 11.0727 19.6448C11.2609 19.4603 11.2609 19.1611 11.0727 18.9765C10.8843 18.792 10.5791 18.792 10.3909 18.9765Z" fill="#010B4C"/>
<path d="M11.9703 14.8532C11.7821 14.6687 11.4769 14.6687 11.2887 14.8532L8.05133 18.0271C7.86312 18.2116 7.86312 18.5108 8.05133 18.6953C8.14534 18.7877 8.2687 18.8339 8.39224 18.8339C8.5156 18.8339 8.63915 18.7877 8.73316 18.6953L11.9705 15.5215C12.1587 15.3369 12.1587 15.0377 11.9703 14.8532Z" fill="#010B4C"/>
</svg>
